<svg width="151" height="48" viewBox="0 0 151 48" fill="none" xmlns="http://www.w3.org/2000/svg">
<g filter="url(#filter0_b_105_2132)">
<rect width="151" height="48" rx="24" fill="#D9D9D9" fill-opacity="0.12"/>
<path d="M28.4038 29L25.2823 18.0909H27.8018L29.6076 25.6708H29.6982L31.6903 18.0909H33.8477L35.8345 25.6868H35.9304L37.7362 18.0909H40.2557L37.1342 29H34.8864L32.8089 21.8675H32.7237L30.6516 29H28.4038ZM42.5718 29H40.1002L43.8662 18.0909H46.8385L50.5992 29H48.1276L45.395 20.5838H45.3098L42.5718 29ZM42.4174 24.712H48.2554V26.5124H42.4174V24.712ZM50.4637 19.9925V18.0909H59.4232V19.9925H56.0834V29H53.8036V19.9925H50.4637ZM70.326 21.9102H67.993C67.9503 21.6083 67.8633 21.3402 67.7319 21.1058C67.6006 20.8679 67.4319 20.6655 67.2259 20.4986C67.0199 20.3317 66.782 20.2038 66.5121 20.1151C66.2458 20.0263 65.9564 19.9819 65.6439 19.9819C65.0792 19.9819 64.5874 20.1222 64.1684 20.4027C63.7493 20.6797 63.4244 21.0845 63.1936 21.6172C62.9628 22.1463 62.8474 22.7891 62.8474 23.5455C62.8474 24.3232 62.9628 24.9766 63.1936 25.5057C63.428 26.0348 63.7547 26.4343 64.1737 26.7042C64.5927 26.9741 65.0775 27.109 65.6279 27.109C65.9368 27.109 66.2227 27.0682 66.4855 26.9865C66.7518 26.9048 66.988 26.7859 67.1939 26.6296C67.3999 26.4698 67.5704 26.2763 67.7053 26.049C67.8438 25.8217 67.9397 25.5625 67.993 25.2713L70.326 25.282C70.2657 25.7827 70.1148 26.2656 69.8733 26.7308C69.6354 27.1925 69.314 27.6062 68.9091 27.9719C68.5079 28.3342 68.0285 28.6218 67.4709 28.8349C66.917 29.0444 66.2902 29.1491 65.5906 29.1491C64.6176 29.1491 63.7476 28.929 62.9805 28.4886C62.217 28.0483 61.6133 27.4109 61.1694 26.5763C60.7291 25.7418 60.5089 24.7315 60.5089 23.5455C60.5089 22.3558 60.7327 21.3438 61.1801 20.5092C61.6275 19.6747 62.2348 19.0391 63.0018 18.6023C63.7689 18.1619 64.6318 17.9418 65.5906 17.9418C66.2227 17.9418 66.8086 18.0305 67.3484 18.2081C67.8917 18.3857 68.3729 18.6449 68.792 18.9858C69.211 19.3232 69.5519 19.7369 69.8147 20.2269C70.081 20.717 70.2515 21.2781 70.326 21.9102ZM72.28 29V18.0909H74.5865V22.592H79.2686V18.0909H81.5698V29H79.2686V24.4936H74.5865V29H72.28ZM96.6677 18.0909V29H94.6755L89.9294 22.1339H89.8495V29H87.5431V18.0909H89.5672L94.276 24.9517H94.3719V18.0909H96.6677ZM108.898 23.5455C108.898 24.7351 108.673 25.7472 108.222 26.5817C107.774 27.4162 107.163 28.0536 106.389 28.494C105.619 28.9308 104.752 29.1491 103.79 29.1491C102.82 29.1491 101.95 28.929 101.18 28.4886C100.409 28.0483 99.8002 27.4109 99.3528 26.5763C98.9053 25.7418 98.6816 24.7315 98.6816 23.5455C98.6816 22.3558 98.9053 21.3438 99.3528 20.5092C99.8002 19.6747 100.409 19.0391 101.18 18.6023C101.95 18.1619 102.82 17.9418 103.79 17.9418C104.752 17.9418 105.619 18.1619 106.389 18.6023C107.163 19.0391 107.774 19.6747 108.222 20.5092C108.673 21.3438 108.898 22.3558 108.898 23.5455ZM106.56 23.5455C106.56 22.7749 106.444 22.125 106.214 21.5959C105.986 21.0668 105.665 20.6655 105.249 20.392C104.834 20.1186 104.347 19.9819 103.79 19.9819C103.232 19.9819 102.746 20.1186 102.33 20.392C101.915 20.6655 101.592 21.0668 101.361 21.5959C101.134 22.125 101.02 22.7749 101.02 23.5455C101.02 24.3161 101.134 24.9659 101.361 25.495C101.592 26.0241 101.915 26.4254 102.33 26.6989C102.746 26.9723 103.232 27.109 103.79 27.109C104.347 27.109 104.834 26.9723 105.249 26.6989C105.665 26.4254 105.986 26.0241 106.214 25.495C106.444 24.9659 106.56 24.3161 106.56 23.5455ZM112.952 29L109.831 18.0909H112.35L114.156 25.6708H114.247L116.239 18.0909H118.396L120.383 25.6868H120.479L122.285 18.0909H124.804L121.683 29H119.435L117.357 21.8675H117.272L115.2 29H112.952Z" fill="white"/>
</g>
<defs>
<filter id="filter0_b_105_2132" x="-24" y="-24" width="199" height="96" filterUnits="userSpaceOnUse" color-interpolation-filters="sRGB">
<feFlood flood-opacity="0" result="BackgroundImageFix"/>
<feGaussianBlur in="BackgroundImageFix" stdDeviation="12"/>
<feComposite in2="SourceAlpha" operator="in" result="effect1_backgroundBlur_105_2132"/>
<feBlend mode="normal" in="SourceGraphic" in2="effect1_backgroundBlur_105_2132" result="shape"/>
</filter>
</defs>
</svg>
