<svg width="25" height="39" viewBox="0 0 25 39" fill="none" xmlns="http://www.w3.org/2000/svg">
<path d="M7.324 36V35.118H4.336V29.439H3.355V36H7.324ZM9.47739 30.492V29.376H8.55939V30.492H9.47739ZM9.47739 36V31.266H8.55939V36H9.47739ZM15.3604 36L13.4524 33.12L15.2704 31.266H14.0914L12.0484 33.381V29.376H11.1124V36H12.0484V34.551L12.8134 33.768L14.2894 36H15.3604ZM15.8367 33.624C15.8367 35.136 16.6827 36.09 18.0867 36.09C19.2027 36.09 20.0487 35.487 20.2377 34.56H19.3197C19.1757 35.037 18.7167 35.352 18.0957 35.352C17.3127 35.352 16.7907 34.848 16.7907 34.101V33.84H20.1837C20.2107 33.633 20.2197 33.462 20.2197 33.327C20.2197 32.661 20.0217 32.139 19.6347 31.752C19.2477 31.365 18.7257 31.176 18.0777 31.176C16.7007 31.176 15.8367 32.085 15.8367 33.624ZM16.7907 33.066C16.7907 32.382 17.3127 31.914 18.0687 31.914C18.7977 31.914 19.2837 32.364 19.2837 33.021V33.174H16.7907V33.066Z" fill="white" fill-opacity="0.56"/>
<path d="M12.445 22C12.335 22 12.2249 22 12.1149 21.887H12.0049C9.58422 20.6441 3.8627 17.1412 1.88217 11.6045C1.55208 10.5876 0.781877 6.40678 3.20252 3.80791C4.6329 2.22599 5.95325 2 6.83349 2C8.92405 2 11.1246 3.24294 12.445 5.05085C13.7653 3.12994 15.7459 2 18.0565 2C18.9367 2 20.2571 2.22599 21.7975 3.80791C24.2181 6.40678 23.4479 10.7006 23.1178 11.6045C21.1373 17.2542 15.3057 20.6441 12.9951 21.887C12.7751 22 12.555 22 12.445 22Z" fill="white"/>
</svg>
