<svg width="29" height="41" viewBox="0 0 29 41" fill="none" xmlns="http://www.w3.org/2000/svg">
<path d="M14 5V19" stroke="white" stroke-width="3" stroke-linecap="round" stroke-linejoin="round"/>
<path d="M7 12H21" stroke="white" stroke-width="3" stroke-linecap="round" stroke-linejoin="round"/>
<path d="M1.818 38V34.661L1.737 32.753H1.8L4.113 37.883L6.417 32.753H6.471L6.399 34.652V38H7.353V31.439H6.084L4.131 35.903H4.077L2.133 31.439H0.855V38H1.818ZM10.315 37.415V38.747H9.22598V39.503H10.441C10.792 39.503 11.017 39.395 11.116 39.206C11.215 39.026 11.233 38.891 11.233 38.684V37.424L13.186 33.266H12.187L11.53 34.787L10.792 36.515H10.738L10.018 34.787L9.36998 33.266H8.36198L10.315 37.415ZM17.2339 38V31.376H16.3159V38H17.2339ZM19.7869 32.492V31.376H18.8689V32.492H19.7869ZM19.7869 38V33.266H18.8689V38H19.7869ZM21.035 36.551C21.035 37.478 21.791 38.09 23.015 38.09C24.194 38.09 24.95 37.523 24.95 36.614C24.95 35.894 24.527 35.462 23.681 35.309L22.781 35.147C22.304 35.075 22.061 34.868 22.061 34.535C22.061 34.13 22.385 33.878 22.961 33.878C23.564 33.878 23.879 34.13 23.897 34.634H24.815C24.806 33.761 24.104 33.176 22.961 33.176C21.845 33.176 21.125 33.716 21.125 34.625C21.125 35.318 21.557 35.75 22.421 35.903L23.384 36.083C23.789 36.155 23.987 36.353 23.987 36.677C23.987 37.118 23.627 37.388 23.015 37.388C22.367 37.388 21.962 37.064 21.962 36.551H21.035ZM28.3316 34.04V33.266H27.3506V31.727H26.4326V33.266H25.5776V34.04H26.4326V37.235C26.4326 37.748 26.6936 38 27.2156 38H28.3316V37.244H27.3506V34.04H28.3316Z" fill="white" fill-opacity="0.56"/>
</svg>
