<svg width="25" height="41" viewBox="0 0 25 41" fill="none" xmlns="http://www.w3.org/2000/svg">
<path fill-rule="evenodd" clip-rule="evenodd" d="M5 5.6527C5 4.22656 6.529 3.32251 7.7786 4.00979L19.3192 10.3571C20.6144 11.0695 20.6144 12.9306 19.3192 13.6429L7.7786 19.9902C6.529 20.6775 5 19.7735 5 18.3473V5.6527Z" fill="white"/>
<path d="M4.336 38V35.669H6.262C7.621 35.669 8.359 34.886 8.359 33.554C8.359 32.222 7.639 31.439 6.262 31.439H3.355V38H4.336ZM4.336 32.339H6.271C6.919 32.339 7.324 32.663 7.324 33.239V33.86C7.324 34.445 6.91 34.832 6.19 34.832H4.336V32.339ZM10.4354 38V31.376H9.5174V38H10.4354ZM11.6924 36.641C11.6924 37.514 12.2684 38.09 13.2044 38.09C13.9604 38.09 14.5724 37.748 14.7794 37.235H14.8424L14.8514 37.46C14.8784 37.82 15.0584 38 15.5264 38H16.3814V37.325H15.7154V34.85C15.7154 34.526 15.6254 34.004 15.2204 33.617C14.9684 33.365 14.4734 33.176 13.8614 33.176C12.6824 33.176 11.9444 33.743 11.8814 34.724H12.7994C12.8264 34.22 13.1774 33.914 13.8164 33.914C14.4644 33.914 14.7884 34.22 14.7884 34.832V35.174H13.4114C12.3404 35.174 11.6924 35.714 11.6924 36.641ZM12.6374 36.443C12.6374 36.056 12.9614 35.813 13.5284 35.813H14.7884V36.038C14.7884 36.83 14.2844 37.352 13.4654 37.352C12.9524 37.352 12.6374 37.127 12.6374 36.695V36.443ZM18.5363 37.415V38.747H17.4473V39.503H18.6623C19.0133 39.503 19.2383 39.395 19.3373 39.206C19.4363 39.026 19.4543 38.891 19.4543 38.684V37.424L21.4073 33.266H20.4083L19.7513 34.787L19.0133 36.515H18.9593L18.2393 34.787L17.5913 33.266H16.5833L18.5363 37.415Z" fill="white" fill-opacity="0.56"/>
</svg>
